<mxfile host="app.diagrams.net" modified="2022-07-18T15:24:13.664Z" agent="5.0 (Macintosh; Intel Mac OS X 10_15_7) AppleWebKit/537.36 (KHTML, like Gecko) Chrome/103.0.0.0 Safari/537.36" etag="nsluZE1tSBL5PWI651un" version="20.1.1" type="github">
  <diagram id="C5RBs43oDa-KdzZeNtuy" name="Page-1">
    <mxGraphModel dx="1298" dy="755" grid="1" gridSize="10" guides="1" tooltips="1" connect="1" arrows="1" fold="1" page="1" pageScale="1" pageWidth="827" pageHeight="1169" math="0" shadow="0">
      <root>
        <mxCell id="WIyWlLk6GJQsqaUBKTNV-0" />
        <mxCell id="WIyWlLk6GJQsqaUBKTNV-1" parent="WIyWlLk6GJQsqaUBKTNV-0" />
        <mxCell id="qRhhpOJqSE6cruspM5UR-2" value="" style="edgeStyle=orthogonalEdgeStyle;rounded=0;orthogonalLoop=1;jettySize=auto;html=1;" edge="1" parent="WIyWlLk6GJQsqaUBKTNV-1" source="qRhhpOJqSE6cruspM5UR-0" target="qRhhpOJqSE6cruspM5UR-1">
          <mxGeometry relative="1" as="geometry" />
        </mxCell>
        <mxCell id="qRhhpOJqSE6cruspM5UR-0" value="&lt;pre style=&quot;background-color:#ffffff;color:#080808;font-family:&#39;JetBrains Mono&#39;,monospace;font-size:9.8pt;&quot;&gt;&lt;span style=&quot;color:#000000;&quot;&gt;QuorumAckChecker&lt;/span&gt;&lt;/pre&gt;" style="ellipse;shape=doubleEllipse;whiteSpace=wrap;html=1;aspect=fixed;" vertex="1" parent="WIyWlLk6GJQsqaUBKTNV-1">
          <mxGeometry x="650" y="40" width="80" height="80" as="geometry" />
        </mxCell>
        <mxCell id="qRhhpOJqSE6cruspM5UR-4" value="" style="edgeStyle=orthogonalEdgeStyle;rounded=0;orthogonalLoop=1;jettySize=auto;html=1;" edge="1" parent="WIyWlLk6GJQsqaUBKTNV-1" source="qRhhpOJqSE6cruspM5UR-1" target="qRhhpOJqSE6cruspM5UR-3">
          <mxGeometry relative="1" as="geometry" />
        </mxCell>
        <mxCell id="qRhhpOJqSE6cruspM5UR-1" value="&lt;pre style=&quot;background-color:#ffffff;color:#080808;font-family:&#39;JetBrains Mono&#39;,monospace;font-size:9.8pt;&quot;&gt;&lt;span style=&quot;color:#871094;&quot;&gt;quorumAckChecker&lt;/span&gt;.start()&lt;/pre&gt;" style="whiteSpace=wrap;html=1;" vertex="1" parent="WIyWlLk6GJQsqaUBKTNV-1">
          <mxGeometry x="580" y="210" width="220" height="60" as="geometry" />
        </mxCell>
        <mxCell id="qRhhpOJqSE6cruspM5UR-6" value="" style="edgeStyle=orthogonalEdgeStyle;rounded=0;orthogonalLoop=1;jettySize=auto;html=1;" edge="1" parent="WIyWlLk6GJQsqaUBKTNV-1" source="qRhhpOJqSE6cruspM5UR-3" target="qRhhpOJqSE6cruspM5UR-5">
          <mxGeometry relative="1" as="geometry" />
        </mxCell>
        <mxCell id="qRhhpOJqSE6cruspM5UR-3" value="DLedgerEntryPusher.QuorumAckChecker#doWork" style="whiteSpace=wrap;html=1;" vertex="1" parent="WIyWlLk6GJQsqaUBKTNV-1">
          <mxGeometry x="545" y="360" width="290" height="60" as="geometry" />
        </mxCell>
        <mxCell id="qRhhpOJqSE6cruspM5UR-8" value="" style="edgeStyle=orthogonalEdgeStyle;rounded=0;orthogonalLoop=1;jettySize=auto;html=1;" edge="1" parent="WIyWlLk6GJQsqaUBKTNV-1" source="qRhhpOJqSE6cruspM5UR-5" target="qRhhpOJqSE6cruspM5UR-7">
          <mxGeometry relative="1" as="geometry" />
        </mxCell>
        <mxCell id="qRhhpOJqSE6cruspM5UR-10" value="" style="edgeStyle=orthogonalEdgeStyle;rounded=0;orthogonalLoop=1;jettySize=auto;html=1;" edge="1" parent="WIyWlLk6GJQsqaUBKTNV-1" source="qRhhpOJqSE6cruspM5UR-5" target="qRhhpOJqSE6cruspM5UR-9">
          <mxGeometry relative="1" as="geometry" />
        </mxCell>
        <mxCell id="qRhhpOJqSE6cruspM5UR-5" value="根据从节点的复制进度，计算已提交的日志序号" style="whiteSpace=wrap;html=1;" vertex="1" parent="WIyWlLk6GJQsqaUBKTNV-1">
          <mxGeometry x="620" y="500" width="140" height="60" as="geometry" />
        </mxCell>
        <mxCell id="qRhhpOJqSE6cruspM5UR-12" value="" style="edgeStyle=orthogonalEdgeStyle;rounded=0;orthogonalLoop=1;jettySize=auto;html=1;" edge="1" parent="WIyWlLk6GJQsqaUBKTNV-1" source="qRhhpOJqSE6cruspM5UR-7" target="qRhhpOJqSE6cruspM5UR-11">
          <mxGeometry relative="1" as="geometry" />
        </mxCell>
        <mxCell id="qRhhpOJqSE6cruspM5UR-7" value="&lt;pre style=&quot;background-color:#ffffff;color:#080808;font-family:&#39;JetBrains Mono&#39;,monospace;font-size:9.8pt;&quot;&gt;&lt;span style=&quot;color:#871094;&quot;&gt;dLedgerStore&lt;/span&gt;.updateCommittedIndex&lt;/pre&gt;" style="whiteSpace=wrap;html=1;" vertex="1" parent="WIyWlLk6GJQsqaUBKTNV-1">
          <mxGeometry x="535" y="640" width="310" height="60" as="geometry" />
        </mxCell>
        <mxCell id="qRhhpOJqSE6cruspM5UR-9" value="版本tag：dledger-0.2.6&lt;br&gt;将集群当前投票轮次所有节点水位倒序排序后&lt;br&gt;取中间 1/2 处的水位作为集群已成功同步水位" style="whiteSpace=wrap;html=1;" vertex="1" parent="WIyWlLk6GJQsqaUBKTNV-1">
          <mxGeometry x="830" y="500" width="300" height="60" as="geometry" />
        </mxCell>
        <mxCell id="qRhhpOJqSE6cruspM5UR-14" style="edgeStyle=orthogonalEdgeStyle;rounded=0;orthogonalLoop=1;jettySize=auto;html=1;exitX=0.5;exitY=1;exitDx=0;exitDy=0;fontColor=#000000;" edge="1" parent="WIyWlLk6GJQsqaUBKTNV-1" source="qRhhpOJqSE6cruspM5UR-11" target="qRhhpOJqSE6cruspM5UR-13">
          <mxGeometry relative="1" as="geometry" />
        </mxCell>
        <mxCell id="qRhhpOJqSE6cruspM5UR-15" value="返回客户端" style="edgeLabel;html=1;align=center;verticalAlign=middle;resizable=0;points=[];fontColor=#000000;" vertex="1" connectable="0" parent="qRhhpOJqSE6cruspM5UR-14">
          <mxGeometry x="-0.0333" y="2" relative="1" as="geometry">
            <mxPoint as="offset" />
          </mxGeometry>
        </mxCell>
        <mxCell id="qRhhpOJqSE6cruspM5UR-11" value="&lt;pre style=&quot;background-color:#ffffff;color:#080808;font-family:&#39;JetBrains Mono&#39;,monospace;font-size:9.8pt;&quot;&gt;&lt;span style=&quot;color:#871094;&quot;&gt;pendingAppendResponsesByTerm&lt;/span&gt;&lt;/pre&gt;&lt;pre style=&quot;background-color:#ffffff;color:#080808;font-family:&#39;JetBrains Mono&#39;,monospace;font-size:9.8pt;&quot;&gt;根据本次集群水位与上一次的集群水位&lt;/pre&gt;&lt;pre style=&quot;background-color: rgb(255, 255, 255); font-family: &amp;quot;JetBrains Mono&amp;quot;, monospace; font-size: 9.8pt;&quot;&gt;将在两者之间的未完成日志append请求设置为请求完成&lt;/pre&gt;" style="whiteSpace=wrap;html=1;" vertex="1" parent="WIyWlLk6GJQsqaUBKTNV-1">
          <mxGeometry x="527.5" y="780" width="325" height="80" as="geometry" />
        </mxCell>
        <mxCell id="qRhhpOJqSE6cruspM5UR-13" value="" style="ellipse;shape=doubleEllipse;whiteSpace=wrap;html=1;aspect=fixed;fontColor=#000000;" vertex="1" parent="WIyWlLk6GJQsqaUBKTNV-1">
          <mxGeometry x="650" y="950" width="80" height="80" as="geometry" />
        </mxCell>
      </root>
    </mxGraphModel>
  </diagram>
</mxfile>
